:FULLY-SPECIFIED
:FORCE-ALL-JOINTS-BE-3DOF
:DEGREES
1019
root 1.14502 15.1582 32.4627 4.9221 -3.61567 3.60568
lfemur 8.53949 0.657127 5.69055
ltibia -9.85194e-15 0 0
lfoot -30.1465 -11.1324 -4.33489e-05
ltoes -34.327 0 0
rfemur -31.7407 -15.8692 -6.0474
rtibia 50.3188 -0 0
rfoot -22.2922 5.01372 8.85255e-06
rtoes -42.0864 0 0
lowerback -1.49765 -0.162935 0.273201
upperback -0.557045 -0.204637 -5.97073
thorax 0.243849 -0.109995 -6.34942
lowerneck -7.10469 0.929505 6.27821
upperneck 1.59557 0.557326 3.53361
head 1.71572 0.412024 0.0678142
lclavicle 1.85694e-15 -1.24895e-14 -3.61289e-32
lhumerus -58.63 -46.3474 115.24
lradius 55.6263 -0 0
lwrist 25.2335 0 0
lhand 37.2958 24.9388 -7.47637e-07
lfingers 7.12502 -0 0
lthumb 60.1182 38.5944 -6.81029e-07
rclavicle 1.85694e-15 -1.24895e-14 -3.61289e-32
rhumerus 2.87765 -24.043 0.167939
rradius 27.6505 -0 0
rwrist -10.2934 0 0
rhand -30.8047 -43.0171 0.00189845
rfingers 7.12502 -0 0
rthumb -4.09449 -72.957 0.00181929
1020
root 1.14589 15.1584 32.4618 4.90855 -3.58464 3.59032
lfemur 8.53462 0.624462 5.706
ltibia -1.11707e-14 0 0
lfoot -30.1477 -11.1153 -3.8249e-05
ltoes -34.3402 0 0
rfemur -31.7048 -15.8802 -6.04117
rtibia 50.3037 -0 0
rfoot -22.283 5.01418 7.81107e-06
rtoes -42.0919 0 0
lowerback -1.49585 -0.155385 0.26031
upperback -0.552336 -0.1941 -5.97253
thorax 0.248981 -0.104491 -6.34374
lowerneck -7.11763 0.923462 6.2901
upperneck 1.61108 0.546198 3.53967
head 1.72298 0.407393 0.0674276
lclavicle 1.94664e-15 -1.22955e-14 -3.18785e-32
lhumerus -58.6391 -46.3837 115.254
lradius 55.6435 -0 0
lwrist 25.2354 0 0
lhand 37.2958 24.9522 -6.59679e-07
lfingers 7.12502 -0 0
lthumb 60.1181 38.6078 -6.00908e-07
rclavicle 1.94664e-15 -1.22955e-14 -3.18785e-32
rhumerus 2.85231 -24.014 0.177698
rradius 27.6398 -0 0
rwrist -10.2637 0 0
rhand -30.7854 -42.9698 0.00167509
rfingers 7.12502 -0 0
rthumb -4.07585 -72.91 0.00160525
1021
root 1.14676 15.1585 32.4608 4.895 -3.55362 3.57495
lfemur 8.52975 0.591799 5.72146
ltibia -1.24895e-14 0 0
lfoot -30.1489 -11.0982 -3.27848e-05
ltoes -34.3535 0 0
rfemur -31.6689 -15.8913 -6.03496
rtibia 50.2885 -0 0
rfoot -22.2738 5.01464 6.6952e-06
rtoes -42.0975 0 0
lowerback -1.49407 -0.147834 0.247419
upperback -0.547629 -0.183563 -5.97432
thorax 0.254114 -0.0989881 -6.33805
lowerneck -7.13057 0.917423 6.302
upperneck 1.62659 0.535068 3.54573
head 1.73024 0.402762 0.0670403
lclavicle 2.03633e-15 -1.21016e-14 -2.73244e-32
lhumerus -58.6483 -46.4201 115.269
lradius 55.6606 -0 0
lwrist 25.2373 0 0
lhand 37.2957 24.9656 -5.65439e-07
lfingers 7.12502 -0 0
lthumb 60.1181 38.6213 -5.15063e-07
rclavicle 2.03633e-15 -1.21016e-14 -2.73244e-32
rhumerus 2.82697 -23.985 0.18744
rradius 27.6292 -0 0
rwrist -10.234 0 0
rhand -30.7661 -42.9224 0.00143578
rfingers 7.12502 -0 0
rthumb -4.05722 -72.863 0.00137592
1022
root 1.14763 15.1587 32.4599 4.88143 -3.5226 3.55957
lfemur 8.52487 0.559136 5.73692
ltibia -1.38082e-14 0 0
lfoot -30.1501 -11.0811 -2.69564e-05
ltoes -34.3668 0 0
rfemur -31.633 -15.9023 -6.02875
rtibia 50.2733 -0 0
rfoot -22.2646 5.01511 5.50494e-06
rtoes -42.103 0 0
lowerback -1.49228 -0.140283 0.234528
upperback -0.542921 -0.173026 -5.97611
thorax 0.259247 -0.0934856 -6.33237
lowerneck -7.1435 0.911385 6.31389
upperneck 1.64209 0.523936 3.55179
head 1.73751 0.398132 0.0666525
lclavicle 2.12603e-15 -1.19076e-14 -2.24667e-32
lhumerus -58.6575 -46.4564 115.284
lradius 55.6778 -0 0
lwrist 25.2391 0 0
lhand 37.2957 24.979 -4.64916e-07
lfingers 7.12502 -0 0
lthumb 60.1181 38.6347 -4.23496e-07
rclavicle 2.12603e-15 -1.19076e-14 -2.24667e-32
rhumerus 2.80165 -23.9559 0.197165
rradius 27.6185 -0 0
rwrist -10.2043 0 0
rhand -30.7468 -42.875 0.00118053
rfingers 7.12502 -0 0
rthumb -4.03858 -72.816 0.0011313
1023
root 1.1485 15.1588 32.4589 4.86786 -3.49159 3.54419
lfemur 8.51998 0.526476 5.75238
ltibia -1.5127e-14 0 0
lfoot -30.1513 -11.0639 -2.07637e-05
ltoes -34.38 0 0
rfemur -31.5971 -15.9134 -6.02255
rtibia 50.2581 -0 0
rfoot -22.2554 5.01557 4.24029e-06
rtoes -42.1086 0 0
lowerback -1.49049 -0.132732 0.221638
upperback -0.538214 -0.162488 -5.97791
thorax 0.264381 -0.0879835 -6.32669
lowerneck -7.15644 0.905351 6.32579
upperneck 1.65759 0.512803 3.55784
head 1.74477 0.393501 0.0662641
lclavicle 2.21572e-15 -1.17137e-14 -1.73055e-32
lhumerus -58.6667 -46.4928 115.298
lradius 55.6949 -0 0
lwrist 25.241 0 0
lhand 37.2957 24.9924 -3.58111e-07
lfingers 7.12502 -0 0
lthumb 60.1181 38.6482 -3.26207e-07
rclavicle 2.21572e-15 -1.17137e-14 -1.73055e-32
rhumerus 2.77634 -23.9269 0.206875
rradius 27.6078 -0 0
rwrist -10.1747 0 0
rhand -30.7275 -42.8277 0.000909318
rfingers 7.12502 -0 0
rthumb -4.01995 -72.769 0.000871404
1024
root 1.14937 15.159 32.458 4.85428 -3.46058 3.5288
lfemur 8.51508 0.493816 5.76784
ltibia -1.64458e-14 0 0
lfoot -30.1526 -11.0468 -1.42067e-05
ltoes -34.3933 0 0
rfemur -31.5613 -15.9245 -6.01635
rtibia 50.2429 -0 0
rfoot -22.2462 5.01603 2.90125e-06
rtoes -42.1142 0 0
lowerback -1.48871 -0.12518 0.208748
upperback -0.533507 -0.151951 -5.9797
thorax 0.269516 -0.0824821 -6.32101
lowerneck -7.16938 0.899319 6.33769
upperneck 1.67309 0.501668 3.5639
head 1.75203 0.388871 0.0658751
lclavicle 2.30542e-15 -1.15198e-14 -1.18406e-32
lhumerus -58.6759 -46.5291 115.313
lradius 55.7121 -0 0
lwrist 25.2429 0 0
lhand 37.2957 25.0059 -2.45023e-07
lfingers 7.12502 -0 0
lthumb 60.118 38.6616 -2.23194e-07
rclavicle 2.30542e-15 -1.15198e-14 -1.18406e-32
rhumerus 2.75104 -23.8978 0.216568
rradius 27.5971 -0 0
rwrist -10.145 0 0
rhand -30.7082 -42.7803 0.00062216
rfingers 7.12502 -0 0
rthumb -4.00131 -72.722 0.000596219
1025
root 1.15024 15.1591 32.457 4.84069 -3.42957 3.5134
lfemur 8.51018 0.461158 5.78331
ltibia -1.77645e-14 0 0
lfoot -30.1538 -11.0297 -7.28549e-06
ltoes -34.4065 0 0
rfemur -31.5254 -15.9355 -6.01016
rtibia 50.2277 -0 0
rfoot -22.237 5.0165 1.48782e-06
rtoes -42.1197 0 0
lowerback -1.48693 -0.117628 0.195858
upperback -0.528801 -0.141413 -5.98149
thorax 0.27465 -0.0769811 -6.31532
lowerneck -7.18233 0.89329 6.34959
upperneck 1.68859 0.490532 3.56994
head 1.7593 0.38424 0.0654855
lclavicle 2.39511e-15 -1.13258e-14 -6.07209e-33
lhumerus -58.6851 -46.5655 115.327
lradius 55.7292 -0 0
lwrist 25.2447 0 0
lhand 37.2956 25.0193 -1.25653e-07
lfingers 7.12502 -0 0
lthumb 60.118 38.6751 -1.14458e-07
rclavicle 2.39511e-15 -1.13258e-14 -6.07209e-33
rhumerus 2.72575 -23.8688 0.226245
rradius 27.5864 -0 0
rwrist -10.1153 0 0
rhand -30.6889 -42.733 0.000319054
rfingers 7.12502 -0 0
rthumb -3.98267 -72.675 0.000305751
1026
root 1.15111 15.1593 32.4561 4.8271 -3.39857 363.498
lfemur 8.50526 0.428502 5.79878
ltibia -1.90833e-14 0 0
lfoot -30.155 -11.0126 0
ltoes -34.4198 0 0
rfemur -31.4895 -15.9466 -6.00398
rtibia 50.2125 0 0
rfoot -22.2278 5.01696 0
rtoes -42.1253 0 0
lowerback -1.48515 -0.110075 0.182968
upperback -0.524095 -0.130875 -5.98328
thorax 0.279786 -0.0714806 -6.30964
lowerneck -7.19527 0.887263 6.36149
upperneck 1.70409 0.479394 3.57599
head 1.76656 0.37961 0.0650953
lclavicle 2.48481e-15 -1.11319e-14 0
lhumerus -58.6944 -46.6018 115.342
lradius 55.7464 0 0
lwrist 25.2466 0 0
lhand 37.2956 25.0327 0
lfingers 7.12502 0 0
lthumb 60.118 38.6885 0
rclavicle 2.48481e-15 -1.11319e-14 0
rhumerus 2.70047 -23.8397 0.235906
rradius 27.5757 0 0
rwrist -10.0856 0 0
rhand -30.6696 -42.6856 0
rfingers 7.12502 0 0
rthumb -3.96404 -792.628 0
1027
root 1.1531 15.1595 32.4598 4.83014 -3.40016 3.49266
lfemur 8.50118 0.432355 5.79158
ltibia 0.032812 -0 0
lfoot -30.1793 -11.009 -3.07146e-05
ltoes -34.4174 0 0
rfemur -31.4709 -15.9348 -6.0112
rtibia 50.2011 -0 0
rfoot -22.2181 5.02753 3.56428e-05
rtoes -42.0921 0 0
lowerback -1.49705 -0.108707 0.169943
upperback -0.523397 -0.128441 -5.98156
thorax 0.287474 -0.0701159 -6.30032
lowerneck -7.19137 0.882847 6.36264
upperneck 1.69337 0.474161 3.57946
head 1.76227 0.376668 0.0657857
lclavicle 2.75874e-15 -1.1481e-14 3.33799e-32
lhumerus -58.6878 -46.6037 115.343
lradius 55.7459 -0 0
lwrist 25.2544 0 0
lhand 37.3014 25.0402 1.4989e-05
lfingers 7.12502 -0 0
lthumb 60.1229 38.6907 3.77604e-06
rclavicle 2.75874e-15 -1.1481e-14 3.33799e-32
rhumerus 2.68388 -23.8261 0.247165
rradius 27.5746 -0 0
rwrist -10.0682 0 0
rhand -30.6698 -42.6674 -1.11863e-06
rfingers 7.12502 -0 0
rthumb -3.96421 -72.6098 -1.08416e-06
